# xmcd
#
# Track frame offsets: 
#        150
#        14450
#        28000
#        42090
#        55460
#        67205
#        80255
#        94025
#        106327
#        118847
#        131552
#        145785
#        157737
#        172232
#        186642
#        199525
#        214510
#        229100
#        240742
#        256320
#        269147
#        283807
#        296677
#
# Disc length: 4128 seconds
#
# Revision: 2
# Processed by: cddbd v1.5.2PL0 Copyright (c) Steve Scherf et al.
# Submitted via: ExactAudioCopy v0.95b4
#
DISCID=60101e17
DTITLE=Compilations - I Can't Be Satisfied- Early American Women Blues
DTITLE=Singers (Vol 2 Town)
DYEAR=1900
DGENRE=Blues
TTITLE0=Victoria Spivey - Dirty T. B. Blues
TTITLE1=Clara Smith - Strugglin' Woman's Blues
TTITLE2=Martha Copeland - Everybody Does It Now
TTITLE3=Lucille Bogan - Pay Roll Blues
TTITLE4=Sara Martin - Forget Me Not Blues
TTITLE5=Sippie Wallace - Section Hand Blues
TTITLE6=Edith Johnson - Good Chib Blues
TTITLE7=Ma Rainey - Traveling Blues
TTITLE8=Bertha 'Chippie' Hill - Do Dirty Blues
TTITLE9=Katherine Baker - I Helped You, Sick Man, When You Were Down a
TTITLE9=nd Out
TTITLE10=Sara Martin - He's Never Gonna Throw Me Down
TTITLE11=Victoria Spivey - Blood Hound Blues
TTITLE12=Margaret Johnson - Dead Drunk Blues
TTITLE13=Sippie Wallace - Parlor Social De Luxe
TTITLE14=Hattie Burleson - Bye Bye Baby
TTITLE15=Madlyn Davis - Winter Blues
TTITLE16=Ivy Smith - My Own Man Blues
TTITLE17=Hattie Burleson - Jim Nappy
TTITLE18=Alberta Brown - How Long
TTITLE19=Bertha 'Chippie' Hill - Trouble in Mind
TTITLE20=Ma Rainey - Walking Blues
TTITLE21=Sara Martin - Mistreating Man Blues
TTITLE22=Sippie Wallace - Trouble Everywhere I Roam
EXTD=
EXTT0=
EXTT1=
EXTT2=
EXTT3=
EXTT4=
EXTT5=
EXTT6=
EXTT7=
EXTT8=
EXTT9=
EXTT10=
EXTT11=
EXTT12=
EXTT13=
EXTT14=
EXTT15=
EXTT16=
EXTT17=
EXTT18=
EXTT19=
EXTT20=
EXTT21=
EXTT22=
PLAYORDER=
